<svg xmlns="http://www.w3.org/2000/svg" width="26px" height="26px" viewBox="0 0 26 26">
<path fill="#333" d="M15.5,5C12.463,5,10,7.462,10,10.5c0,1.261,0.429,2.419,1.143,3.347l-0.698,0.698  c-0.048-0.005-0.089-0.025-0.139-0.025c-0.39,0-0.798,0.166-1.067,0.436L5.44,18.752c-0.229,0.23-0.39,0.565-0.43,0.896  c-0.048,0.391,0.069,0.75,0.33,1.01C5.564,20.883,5.855,21,6.183,21c0.384,0,0.792-0.168,1.065-0.44l3.798-3.798  c0.239-0.24,0.395-0.578,0.428-0.929c0.009-0.101,0.007-0.198-0.004-0.293l0.684-0.684C13.081,15.57,14.239,16,15.5,16  c3.037,0,5.5-2.463,5.5-5.5C21,7.462,18.537,5,15.5,5z M15.5,14c-1.934,0-3.5-1.566-3.5-3.5S13.566,7,15.5,7  c1.935,0,3.5,1.566,3.5,3.5S17.435,14,15.5,14z"/>
</svg>